G04*
G04 #@! TF.GenerationSoftware,Altium Limited,Altium Designer,23.6.0 (18)*
G04*
G04 Layer_Color=65535*
%FSAX24Y24*%
%MOIN*%
G70*
G04*
G04 #@! TF.SameCoordinates,E551B0BA-23AD-4420-B302-DDD5F3B2D540*
G04*
G04*
G04 #@! TF.FilePolarity,Positive*
G04*
G01*
G75*
%ADD10C,0.0079*%
%ADD11C,0.0050*%
%ADD12C,0.0100*%
%ADD13C,0.0060*%
D10*
X202994Y125550D02*
G03*
X202994Y125550I-000039J000000D01*
G01*
X223357Y123240D02*
X224184D01*
X221625D02*
X222452D01*
X221625Y120760D02*
Y123240D01*
X223357Y120760D02*
X224184D01*
X221625D02*
X222452D01*
X224184D02*
Y123240D01*
X223357Y119290D02*
X224184D01*
X221625D02*
X222452D01*
X221625Y116810D02*
Y119290D01*
X223357Y116810D02*
X224184D01*
X221625D02*
X222452D01*
X224184D02*
Y119290D01*
X203947Y116940D02*
X204773D01*
X202214D02*
X203041D01*
X202214Y114460D02*
Y116940D01*
X203947Y114460D02*
X204773D01*
X202214D02*
X203041D01*
X204773D02*
Y116940D01*
X220007Y112740D02*
X220834D01*
X218275D02*
X219102D01*
X218275Y110260D02*
Y112740D01*
X220007Y110260D02*
X220834D01*
X218275D02*
X219102D01*
X220834D02*
Y112740D01*
X218497Y116090D02*
X219323D01*
X216764D02*
X217591D01*
X216764Y113610D02*
Y116090D01*
X218497Y113610D02*
X219323D01*
X216764D02*
X217591D01*
X219323D02*
Y116090D01*
X216832Y112740D02*
X217659D01*
X215100D02*
X215927D01*
X215100Y110260D02*
Y112740D01*
X216832Y110260D02*
X217659D01*
X215100D02*
X215927D01*
X217659D02*
Y112740D01*
X215300Y116090D02*
X216127D01*
X213568D02*
X214395D01*
X213568Y113610D02*
Y116090D01*
X215300Y113610D02*
X216127D01*
X213568D02*
X214395D01*
X216127D02*
Y116090D01*
X213657Y112740D02*
X214484D01*
X211925D02*
X212752D01*
X211925Y110260D02*
Y112740D01*
X213657Y110260D02*
X214484D01*
X211925D02*
X212752D01*
X214484D02*
Y112740D01*
X212104Y116090D02*
X212930D01*
X210371D02*
X211198D01*
X210371Y113610D02*
Y116090D01*
X212104Y113610D02*
X212930D01*
X210371D02*
X211198D01*
X212930D02*
Y116090D01*
X210482Y112740D02*
X211309D01*
X208750D02*
X209577D01*
X208750Y110260D02*
Y112740D01*
X210482Y110260D02*
X211309D01*
X208750D02*
X209577D01*
X211309D02*
Y112740D01*
X208907Y116090D02*
X209734D01*
X207175D02*
X208002D01*
X207175Y113610D02*
Y116090D01*
X208907Y113610D02*
X209734D01*
X207175D02*
X208002D01*
X209734D02*
Y116090D01*
X207307Y112740D02*
X208134D01*
X205575D02*
X206402D01*
X205575Y110260D02*
Y112740D01*
X207307Y110260D02*
X208134D01*
X205575D02*
X206402D01*
X208134D02*
Y112740D01*
D11*
X208006Y125800D02*
Y127800D01*
X206504Y125800D02*
X208006D01*
X206504Y125202D02*
Y125800D01*
X203504Y125202D02*
X206504D01*
X203504D02*
Y125800D01*
X202002D02*
X203504D01*
X202002D02*
Y127800D01*
X208006D01*
D12*
X208594Y128007D02*
X211714D01*
X208594Y126792D02*
X211714D01*
X208594D02*
Y128007D01*
X211714Y126792D02*
Y128007D01*
X213105Y125507D02*
X216225D01*
X213105Y124292D02*
X216225D01*
X213105D02*
Y125507D01*
X216225Y124292D02*
Y125507D01*
X213094Y128007D02*
X216214D01*
X213094Y126792D02*
X216214D01*
X213094D02*
Y128007D01*
X216214Y126792D02*
Y128007D01*
X208594Y125507D02*
X211714D01*
X208594Y124292D02*
X211714D01*
X208594D02*
Y125507D01*
X211714Y124292D02*
Y125507D01*
X217594Y128007D02*
X220714D01*
X217594Y126792D02*
X220714D01*
X217594D02*
Y128007D01*
X220714Y126792D02*
Y128007D01*
X217594Y125507D02*
X220714D01*
X217594Y124292D02*
X220714D01*
X217594D02*
Y125507D01*
X220714Y124292D02*
Y125507D01*
D13*
X204204Y125654D02*
X204004D01*
Y125354D01*
X204204D01*
X204004Y125504D02*
X204104D01*
X204304Y125354D02*
Y125654D01*
X204504Y125354D01*
Y125654D01*
X204804Y125604D02*
X204754Y125654D01*
X204654D01*
X204604Y125604D01*
Y125404D01*
X204654Y125354D01*
X204754D01*
X204804Y125404D01*
X205053Y125654D02*
X204953D01*
X204904Y125604D01*
Y125404D01*
X204953Y125354D01*
X205053D01*
X205103Y125404D01*
Y125604D01*
X205053Y125654D01*
X205203D02*
Y125354D01*
X205353D01*
X205403Y125404D01*
Y125604D01*
X205353Y125654D01*
X205203D01*
X205703D02*
X205503D01*
Y125354D01*
X205703D01*
X205503Y125504D02*
X205603D01*
X205803Y125354D02*
Y125654D01*
X205953D01*
X206003Y125604D01*
Y125504D01*
X205953Y125454D01*
X205803D01*
X205903D02*
X206003Y125354D01*
X202967Y128300D02*
X202767D01*
Y128150D01*
X202867Y128200D01*
X202917D01*
X202967Y128150D01*
Y128050D01*
X202917Y128000D01*
X202817D01*
X202767Y128050D01*
X203067Y128300D02*
Y128100D01*
X203167Y128000D01*
X203267Y128100D01*
Y128300D01*
X205717Y128250D02*
X205667Y128300D01*
X205567D01*
X205517Y128250D01*
Y128050D01*
X205567Y128000D01*
X205667D01*
X205717Y128050D01*
Y128150D01*
X205617D01*
X205817Y128000D02*
Y128300D01*
X206017Y128000D01*
Y128300D01*
X206117D02*
Y128000D01*
X206267D01*
X206317Y128050D01*
Y128250D01*
X206267Y128300D01*
X206117D01*
X204917D02*
Y128000D01*
X205067D01*
X205117Y128050D01*
Y128100D01*
X205067Y128150D01*
X204917D01*
X205067D01*
X205117Y128200D01*
Y128250D01*
X205067Y128300D01*
X204917D01*
X203917Y128000D02*
Y128200D01*
X204017Y128300D01*
X204117Y128200D01*
Y128000D01*
Y128150D01*
X203917D01*
X206817Y128250D02*
X206767Y128300D01*
X206667D01*
X206617Y128250D01*
Y128050D01*
X206667Y128000D01*
X206767D01*
X206817Y128050D01*
Y128150D01*
X206717D01*
X206917Y128000D02*
Y128300D01*
X207117Y128000D01*
Y128300D01*
X207217D02*
Y128000D01*
X207367D01*
X207417Y128050D01*
Y128250D01*
X207367Y128300D01*
X207217D01*
X209667Y125900D02*
X209617Y125950D01*
X209517D01*
X209467Y125900D01*
Y125850D01*
X209517Y125800D01*
X209617D01*
X209667Y125750D01*
Y125700D01*
X209617Y125650D01*
X209517D01*
X209467Y125700D01*
X209767Y125950D02*
X209967D01*
X209867D01*
Y125650D01*
X210067D02*
Y125850D01*
X210167Y125950D01*
X210267Y125850D01*
Y125650D01*
Y125800D01*
X210067D01*
X210367Y125650D02*
Y125950D01*
X210517D01*
X210567Y125900D01*
Y125800D01*
X210517Y125750D01*
X210367D01*
X210467D02*
X210567Y125650D01*
X210667Y125950D02*
X210867D01*
X210767D01*
Y125650D01*
X210017Y126600D02*
X209967Y126650D01*
X209867D01*
X209817Y126600D01*
Y126400D01*
X209867Y126350D01*
X209967D01*
X210017Y126400D01*
Y126500D01*
X209917D01*
X210117Y126350D02*
Y126650D01*
X210317Y126350D01*
Y126650D01*
X210417D02*
Y126350D01*
X210567D01*
X210617Y126400D01*
Y126600D01*
X210567Y126650D01*
X210417D01*
X214517Y126600D02*
X214467Y126650D01*
X214367D01*
X214317Y126600D01*
Y126400D01*
X214367Y126350D01*
X214467D01*
X214517Y126400D01*
Y126500D01*
X214417D01*
X214617Y126350D02*
Y126650D01*
X214817Y126350D01*
Y126650D01*
X214917D02*
Y126350D01*
X215067D01*
X215117Y126400D01*
Y126600D01*
X215067Y126650D01*
X214917D01*
X213928Y125900D02*
X213878Y125950D01*
X213778D01*
X213728Y125900D01*
Y125700D01*
X213778Y125650D01*
X213878D01*
X213928Y125700D01*
X214028Y125650D02*
Y125950D01*
X214178D01*
X214228Y125900D01*
Y125800D01*
X214178Y125750D01*
X214028D01*
X214128D02*
X214228Y125650D01*
X214528Y125950D02*
X214328D01*
Y125650D01*
X214528D01*
X214328Y125800D02*
X214428D01*
X214628Y125950D02*
Y125650D01*
X214777D01*
X214827Y125700D01*
Y125900D01*
X214777Y125950D01*
X214628D01*
X214927D02*
X215027D01*
X214977D01*
Y125650D01*
X214927D01*
X215027D01*
X215177Y125950D02*
X215377D01*
X215277D01*
Y125650D01*
X215477D02*
X215577D01*
X215527D01*
Y125950D01*
X215477Y125900D01*
X218514Y110070D02*
Y109820D01*
X218564Y109770D01*
X218664D01*
X218714Y109820D01*
Y110070D01*
X218814Y109770D02*
Y110070D01*
X219014Y109770D01*
Y110070D01*
X219114D02*
Y109770D01*
Y109870D01*
X219314Y110070D01*
X219164Y109920D01*
X219314Y109770D01*
X219414D02*
Y110070D01*
X219614Y109770D01*
Y110070D01*
X219864D02*
X219764D01*
X219714Y110020D01*
Y109820D01*
X219764Y109770D01*
X219864D01*
X219914Y109820D01*
Y110020D01*
X219864Y110070D01*
X220014D02*
Y109770D01*
X220114Y109870D01*
X220214Y109770D01*
Y110070D01*
X220314Y109770D02*
Y110070D01*
X220514Y109770D01*
Y110070D01*
X217304Y113120D02*
Y113420D01*
X217454D01*
X217504Y113370D01*
Y113270D01*
X217454Y113220D01*
X217304D01*
X217404D02*
X217504Y113120D01*
X217804Y113420D02*
X217604D01*
Y113120D01*
X217804D01*
X217604Y113270D02*
X217704D01*
X218104Y113370D02*
X218054Y113420D01*
X217954D01*
X217904Y113370D01*
Y113320D01*
X217954Y113270D01*
X218054D01*
X218104Y113220D01*
Y113170D01*
X218054Y113120D01*
X217954D01*
X217904Y113170D01*
X218403Y113420D02*
X218204D01*
Y113120D01*
X218403D01*
X218204Y113270D02*
X218303D01*
X218503Y113420D02*
X218703D01*
X218603D01*
Y113120D01*
X215364Y109770D02*
Y110070D01*
X215514D01*
X215564Y110020D01*
Y109920D01*
X215514Y109870D01*
X215364D01*
X215464D02*
X215564Y109770D01*
X215864Y110070D02*
X215664D01*
Y109770D01*
X215864D01*
X215664Y109920D02*
X215764D01*
X216164Y110020D02*
X216114Y110070D01*
X216014D01*
X215964Y110020D01*
Y109970D01*
X216014Y109920D01*
X216114D01*
X216164Y109870D01*
Y109820D01*
X216114Y109770D01*
X216014D01*
X215964Y109820D01*
X216264Y110070D02*
X216464D01*
X216364D01*
Y109770D01*
X216564D02*
Y109970D01*
X216664Y110070D01*
X216764Y109970D01*
Y109770D01*
Y109920D01*
X216564D01*
X216864Y109770D02*
Y110070D01*
X217014D01*
X217064Y110020D01*
Y109920D01*
X217014Y109870D01*
X216864D01*
X216964D02*
X217064Y109770D01*
X217164Y110070D02*
X217364D01*
X217264D01*
Y109770D01*
X214507Y113370D02*
X214457Y113420D01*
X214357D01*
X214307Y113370D01*
Y113320D01*
X214357Y113270D01*
X214457D01*
X214507Y113220D01*
Y113170D01*
X214457Y113120D01*
X214357D01*
X214307Y113170D01*
X214607Y113420D02*
Y113120D01*
Y113220D01*
X214807Y113420D01*
X214657Y113270D01*
X214807Y113120D01*
X214907Y113420D02*
X215007D01*
X214957D01*
Y113120D01*
X214907D01*
X215007D01*
X215157D02*
Y113420D01*
X215307D01*
X215357Y113370D01*
Y113270D01*
X215307Y113220D01*
X215157D01*
X212464Y109770D02*
Y110070D01*
X212614D01*
X212664Y110020D01*
Y109920D01*
X212614Y109870D01*
X212464D01*
X212764Y109770D02*
Y109970D01*
X212864Y110070D01*
X212964Y109970D01*
Y109770D01*
Y109920D01*
X212764D01*
X213064Y110070D02*
Y109820D01*
X213114Y109770D01*
X213214D01*
X213264Y109820D01*
Y110070D01*
X213564Y110020D02*
X213514Y110070D01*
X213414D01*
X213364Y110020D01*
Y109970D01*
X213414Y109920D01*
X213514D01*
X213564Y109870D01*
Y109820D01*
X213514Y109770D01*
X213414D01*
X213364Y109820D01*
X213864Y110070D02*
X213664D01*
Y109770D01*
X213864D01*
X213664Y109920D02*
X213764D01*
X210711Y113370D02*
X210661Y113420D01*
X210561D01*
X210511Y113370D01*
Y113320D01*
X210561Y113270D01*
X210661D01*
X210711Y113220D01*
Y113170D01*
X210661Y113120D01*
X210561D01*
X210511Y113170D01*
X211011Y113420D02*
X210811D01*
Y113120D01*
X211011D01*
X210811Y113270D02*
X210911D01*
X211111Y113420D02*
X211311D01*
X211211D01*
Y113120D01*
X211411Y113420D02*
X211611D01*
X211511D01*
Y113120D01*
X211710Y113420D02*
X211810D01*
X211760D01*
Y113120D01*
X211710D01*
X211810D01*
X211960D02*
Y113420D01*
X212160Y113120D01*
Y113420D01*
X212460Y113370D02*
X212410Y113420D01*
X212310D01*
X212260Y113370D01*
Y113170D01*
X212310Y113120D01*
X212410D01*
X212460Y113170D01*
Y113270D01*
X212360D01*
X212760Y113370D02*
X212710Y113420D01*
X212610D01*
X212560Y113370D01*
Y113320D01*
X212610Y113270D01*
X212710D01*
X212760Y113220D01*
Y113170D01*
X212710Y113120D01*
X212610D01*
X212560Y113170D01*
X207664Y113370D02*
X207614Y113420D01*
X207514D01*
X207464Y113370D01*
Y113170D01*
X207514Y113120D01*
X207614D01*
X207664Y113170D01*
X207764Y113120D02*
Y113420D01*
X207914D01*
X207964Y113370D01*
Y113270D01*
X207914Y113220D01*
X207764D01*
X207864D02*
X207964Y113120D01*
X208264Y113420D02*
X208064D01*
Y113120D01*
X208264D01*
X208064Y113270D02*
X208164D01*
X208364Y113420D02*
Y113120D01*
X208514D01*
X208564Y113170D01*
Y113370D01*
X208514Y113420D01*
X208364D01*
X208664D02*
X208764D01*
X208714D01*
Y113120D01*
X208664D01*
X208764D01*
X208914Y113420D02*
X209114D01*
X209014D01*
Y113120D01*
X209214D02*
X209314D01*
X209264D01*
Y113420D01*
X209214Y113370D01*
X209214Y110020D02*
X209164Y110070D01*
X209064D01*
X209014Y110020D01*
Y109820D01*
X209064Y109770D01*
X209164D01*
X209214Y109820D01*
X209314Y109770D02*
Y110070D01*
X209464D01*
X209514Y110020D01*
Y109920D01*
X209464Y109870D01*
X209314D01*
X209414D02*
X209514Y109770D01*
X209814Y110070D02*
X209614D01*
Y109770D01*
X209814D01*
X209614Y109920D02*
X209714D01*
X209914Y110070D02*
Y109770D01*
X210064D01*
X210114Y109820D01*
Y110020D01*
X210064Y110070D01*
X209914D01*
X210214D02*
X210314D01*
X210264D01*
Y109770D01*
X210214D01*
X210314D01*
X210464Y110070D02*
X210664D01*
X210564D01*
Y109770D01*
X210964D02*
X210764D01*
X210964Y109970D01*
Y110020D01*
X210914Y110070D01*
X210814D01*
X210764Y110020D01*
X206314D02*
X206264Y110070D01*
X206164D01*
X206114Y110020D01*
Y109970D01*
X206164Y109920D01*
X206264D01*
X206314Y109870D01*
Y109820D01*
X206264Y109770D01*
X206164D01*
X206114Y109820D01*
X206414Y110070D02*
X206614D01*
X206514D01*
Y109770D01*
X206714D02*
Y109970D01*
X206814Y110070D01*
X206914Y109970D01*
Y109770D01*
Y109920D01*
X206714D01*
X207014Y109770D02*
Y110070D01*
X207164D01*
X207214Y110020D01*
Y109920D01*
X207164Y109870D01*
X207014D01*
X207114D02*
X207214Y109770D01*
X207314Y110070D02*
X207514D01*
X207414D01*
Y109770D01*
X202104Y113970D02*
Y114270D01*
X202254D01*
X202304Y114220D01*
Y114120D01*
X202254Y114070D01*
X202104D01*
X202204D02*
X202304Y113970D01*
X202554Y114270D02*
X202454D01*
X202404Y114220D01*
Y114020D01*
X202454Y113970D01*
X202554D01*
X202604Y114020D01*
Y114220D01*
X202554Y114270D01*
X202704D02*
X202904D01*
X202804D01*
Y113970D01*
X203004D02*
Y114170D01*
X203103Y114270D01*
X203203Y114170D01*
Y113970D01*
Y114120D01*
X203004D01*
X203303Y113970D02*
Y114270D01*
X203453D01*
X203503Y114220D01*
Y114120D01*
X203453Y114070D01*
X203303D01*
X203403D02*
X203503Y113970D01*
X203603Y114270D02*
Y114220D01*
X203703Y114120D01*
X203803Y114220D01*
Y114270D01*
X203703Y114120D02*
Y113970D01*
X204203Y114270D02*
Y113970D01*
X204353D01*
X204403Y114020D01*
Y114220D01*
X204353Y114270D01*
X204203D01*
X204503D02*
X204603D01*
X204553D01*
Y113970D01*
X204503D01*
X204603D01*
X204753Y114270D02*
Y114070D01*
X204853Y113970D01*
X204953Y114070D01*
Y114270D01*
X219017Y126600D02*
X218967Y126650D01*
X218867D01*
X218817Y126600D01*
Y126400D01*
X218867Y126350D01*
X218967D01*
X219017Y126400D01*
Y126500D01*
X218917D01*
X219117Y126350D02*
Y126650D01*
X219317Y126350D01*
Y126650D01*
X219417D02*
Y126350D01*
X219567D01*
X219617Y126400D01*
Y126600D01*
X219567Y126650D01*
X219417D01*
X218417Y125900D02*
X218367Y125950D01*
X218267D01*
X218217Y125900D01*
Y125700D01*
X218267Y125650D01*
X218367D01*
X218417Y125700D01*
X218517Y125650D02*
Y125950D01*
X218667D01*
X218717Y125900D01*
Y125800D01*
X218667Y125750D01*
X218517D01*
X218617D02*
X218717Y125650D01*
X219017Y125950D02*
X218817D01*
Y125650D01*
X219017D01*
X218817Y125800D02*
X218917D01*
X219117Y125950D02*
Y125650D01*
X219267D01*
X219317Y125700D01*
Y125900D01*
X219267Y125950D01*
X219117D01*
X219417D02*
X219517D01*
X219467D01*
Y125650D01*
X219417D01*
X219517D01*
X219667Y125950D02*
X219867D01*
X219767D01*
Y125650D01*
X220167D02*
X219967D01*
X220167Y125850D01*
Y125900D01*
X220117Y125950D01*
X220017D01*
X219967Y125900D01*
X222064Y120520D02*
X222014Y120570D01*
X221914D01*
X221864Y120520D01*
Y120320D01*
X221914Y120270D01*
X222014D01*
X222064Y120320D01*
X222164Y120570D02*
Y120320D01*
X222214Y120270D01*
X222314D01*
X222364Y120320D01*
Y120570D01*
X222664Y120520D02*
X222614Y120570D01*
X222514D01*
X222464Y120520D01*
Y120470D01*
X222514Y120420D01*
X222614D01*
X222664Y120370D01*
Y120320D01*
X222614Y120270D01*
X222514D01*
X222464Y120320D01*
X222764Y120570D02*
X222964D01*
X222864D01*
Y120270D01*
X223214Y120570D02*
X223114D01*
X223064Y120520D01*
Y120320D01*
X223114Y120270D01*
X223214D01*
X223264Y120320D01*
Y120520D01*
X223214Y120570D01*
X223364Y120270D02*
Y120570D01*
X223464Y120470D01*
X223564Y120570D01*
Y120270D01*
X223864D02*
X223664D01*
X223864Y120470D01*
Y120520D01*
X223814Y120570D01*
X223714D01*
X223664Y120520D01*
X222114Y116570D02*
X222064Y116620D01*
X221964D01*
X221914Y116570D01*
Y116370D01*
X221964Y116320D01*
X222064D01*
X222114Y116370D01*
X222214Y116620D02*
Y116370D01*
X222264Y116320D01*
X222364D01*
X222414Y116370D01*
Y116620D01*
X222714Y116570D02*
X222664Y116620D01*
X222564D01*
X222514Y116570D01*
Y116520D01*
X222564Y116470D01*
X222664D01*
X222714Y116420D01*
Y116370D01*
X222664Y116320D01*
X222564D01*
X222514Y116370D01*
X222814Y116620D02*
X223014D01*
X222914D01*
Y116320D01*
X223264Y116620D02*
X223164D01*
X223114Y116570D01*
Y116370D01*
X223164Y116320D01*
X223264D01*
X223314Y116370D01*
Y116570D01*
X223264Y116620D01*
X223414Y116320D02*
Y116620D01*
X223514Y116520D01*
X223614Y116620D01*
Y116320D01*
X223714D02*
X223814D01*
X223764D01*
Y116620D01*
X223714Y116570D01*
M02*
