G04*
G04 #@! TF.GenerationSoftware,Altium Limited,Altium Designer,23.6.0 (18)*
G04*
G04 Layer_Color=32896*
%FSAX24Y24*%
%MOIN*%
G70*
G04*
G04 #@! TF.SameCoordinates,E551B0BA-23AD-4420-B302-DDD5F3B2D540*
G04*
G04*
G04 #@! TF.FilePolarity,Positive*
G04*
G01*
G75*
%ADD13C,0.0060*%
D13*
X207364Y127650D02*
Y127500D01*
X207314Y127450D01*
X207264Y127500D01*
X207214Y127450D01*
X207164Y127500D01*
Y127650D01*
X207065D02*
Y127500D01*
X207015Y127450D01*
X206965Y127500D01*
X206915Y127450D01*
X206865Y127500D01*
Y127650D01*
X206765D02*
Y127500D01*
X206715Y127450D01*
X206665Y127500D01*
X206615Y127450D01*
X206565Y127500D01*
Y127650D01*
X206465Y127450D02*
Y127500D01*
X206415D01*
Y127450D01*
X206465D01*
X206215Y127350D02*
Y127650D01*
X206065D01*
X206015Y127600D01*
Y127500D01*
X206065Y127450D01*
X206215D01*
X205915Y127650D02*
Y127450D01*
Y127550D01*
X205865Y127600D01*
X205815Y127650D01*
X205765D01*
X205565Y127450D02*
X205465D01*
X205415Y127500D01*
Y127600D01*
X205465Y127650D01*
X205565D01*
X205615Y127600D01*
Y127500D01*
X205565Y127450D01*
X205315Y127350D02*
X205265D01*
X205215Y127400D01*
Y127650D01*
X204865Y127450D02*
X204965D01*
X205015Y127500D01*
Y127600D01*
X204965Y127650D01*
X204865D01*
X204815Y127600D01*
Y127550D01*
X205015D01*
X204515Y127650D02*
X204665D01*
X204715Y127600D01*
Y127500D01*
X204665Y127450D01*
X204515D01*
X204365Y127700D02*
Y127650D01*
X204415D01*
X204315D01*
X204365D01*
Y127500D01*
X204315Y127450D01*
X204165Y127650D02*
X204065Y127450D01*
X203966Y127650D01*
X203866Y127750D02*
Y127450D01*
X203716D01*
X203666Y127500D01*
Y127550D01*
Y127600D01*
X203716Y127650D01*
X203866D01*
X203566Y127450D02*
Y127500D01*
X203516D01*
Y127450D01*
X203566D01*
X203116Y127650D02*
X203266D01*
X203316Y127600D01*
Y127500D01*
X203266Y127450D01*
X203116D01*
X202966D02*
X202866D01*
X202816Y127500D01*
Y127600D01*
X202866Y127650D01*
X202966D01*
X203016Y127600D01*
Y127500D01*
X202966Y127450D01*
X202716D02*
Y127650D01*
X202666D01*
X202616Y127600D01*
Y127450D01*
Y127600D01*
X202566Y127650D01*
X202516Y127600D01*
Y127450D01*
X207984Y128300D02*
X207784D01*
X207884D01*
Y128000D01*
X207685Y128300D02*
Y128000D01*
Y128150D01*
X207635Y128200D01*
X207535D01*
X207485Y128150D01*
Y128000D01*
X207235D02*
X207335D01*
X207385Y128050D01*
Y128150D01*
X207335Y128200D01*
X207235D01*
X207185Y128150D01*
Y128100D01*
X207385D01*
X206785Y128000D02*
Y128200D01*
X206685Y128300D01*
X206585Y128200D01*
Y128000D01*
Y128150D01*
X206785D01*
X206285Y128200D02*
X206435D01*
X206485Y128150D01*
Y128050D01*
X206435Y128000D01*
X206285D01*
X206135Y128250D02*
Y128200D01*
X206185D01*
X206085D01*
X206135D01*
Y128050D01*
X206085Y128000D01*
X205635Y128300D02*
Y128050D01*
X205585Y128000D01*
X205485D01*
X205435Y128050D01*
Y128300D01*
X205135Y128250D02*
X205185Y128300D01*
X205285D01*
X205335Y128250D01*
Y128200D01*
X205285Y128150D01*
X205185D01*
X205135Y128100D01*
Y128050D01*
X205185Y128000D01*
X205285D01*
X205335Y128050D01*
X205035Y128300D02*
Y128000D01*
X204885D01*
X204835Y128050D01*
Y128100D01*
X204885Y128150D01*
X205035D01*
X204885D01*
X204835Y128200D01*
Y128250D01*
X204885Y128300D01*
X205035D01*
X204436D02*
X204336D01*
X204386D01*
Y128000D01*
X204436D01*
X204336D01*
X204186D02*
Y128200D01*
X204036D01*
X203986Y128150D01*
Y128000D01*
X203836Y128250D02*
Y128200D01*
X203886D01*
X203786D01*
X203836D01*
Y128050D01*
X203786Y128000D01*
X203486D02*
X203586D01*
X203636Y128050D01*
Y128150D01*
X203586Y128200D01*
X203486D01*
X203436Y128150D01*
Y128100D01*
X203636D01*
X203336Y128200D02*
Y128000D01*
Y128100D01*
X203286Y128150D01*
X203236Y128200D01*
X203186D01*
X202986Y128000D02*
Y128250D01*
Y128150D01*
X203036D01*
X202936D01*
X202986D01*
Y128250D01*
X202936Y128300D01*
X202736Y128200D02*
X202636D01*
X202586Y128150D01*
Y128000D01*
X202736D01*
X202786Y128050D01*
X202736Y128100D01*
X202586D01*
X202286Y128200D02*
X202436D01*
X202486Y128150D01*
Y128050D01*
X202436Y128000D01*
X202286D01*
X202036D02*
X202136D01*
X202186Y128050D01*
Y128150D01*
X202136Y128200D01*
X202036D01*
X201986Y128150D01*
Y128100D01*
X202186D01*
M02*
