M48
;Layer_Color=9474304
;FILE_FORMAT=2:4
INCH
;TYPE=PLATED
T1F00S00C0.0160
T2F00S00C0.0390
T3F00S00C0.0394
T4F00S00C0.0461
T5F00S00C0.0550
T6F00S00C0.1750
%
T01
X224354Y109900
X221169
X221434Y115486
X224354Y117220
Y120880
Y124540
X219154Y123900
X220854Y122000
X224354Y113560
X217954Y112750
X217983Y109900
X214797
X214804Y112750
X211604
X211612Y109900
X208426
Y112750
X205718Y114716
X205240Y109900
X204687Y120000
X208104Y121250
X210145
X212004
X215068
X217899
X217904Y118000
X212404
X211104
X209754
X208104Y117990
X210145Y123912
X214654Y123900
X206438Y124850
X202054Y124540
Y120880
Y117220
Y113560
Y109900
Y128200
X204640
X208176
X211412
X212391Y126150
X214597Y128200
X217783
X217015Y126150
X220969Y128200
X224354
T02
X219654Y117010
Y123010
X218654
X217654
X216654
X215654
X214654
X213654
X212654
X211654
X210654
X209654
X208654
X207654
X206654
Y117010
X207654
X208654
X209654
X210654
X211654
X212654
X213654
X214654
X215654
X216654
X217654
X218654
T03
X219515Y110516
Y112484
X222865Y117066
Y119034
Y121016
Y122984
X218004Y115834
Y113866
X216340Y112484
Y110516
X213165
Y112484
X211612Y113866
Y115834
X214808
Y113866
X209990Y112484
Y110516
X206815
Y112484
X208415Y113866
Y115834
X203454Y116684
Y114716
T04
X203004Y126800
X204004
X205004
X206004
X207004
T05
X220154Y124900
X218154
X215665
X213665
X211154
X209154
Y127400
X211154
X213654
X215654
X218154
X220154
T06
X222754Y111500
X203654
Y123300
X222754Y126600
M30
