G04*
G04 #@! TF.GenerationSoftware,Altium Limited,Altium Designer,23.6.0 (18)*
G04*
G04 Layer_Color=16711935*
%FSAX24Y24*%
%MOIN*%
G70*
G04*
G04 #@! TF.SameCoordinates,E551B0BA-23AD-4420-B302-DDD5F3B2D540*
G04*
G04*
G04 #@! TF.FilePolarity,Negative*
G04*
G01*
G75*
%ADD16C,0.0771*%
%ADD17R,0.0771X0.0771*%
%ADD18C,0.0880*%
%ADD19C,0.3580*%
%ADD20C,0.0690*%
%ADD21R,0.0690X0.0690*%
%ADD22C,0.0620*%
D16*
X207004Y126800D02*
D03*
X206004D02*
D03*
X205004D02*
D03*
X204004D02*
D03*
D17*
X203004D02*
D03*
D18*
X211154Y127400D02*
D03*
X209154D02*
D03*
X215665Y124900D02*
D03*
X213665D02*
D03*
X215654Y127400D02*
D03*
X213654D02*
D03*
X211154Y124900D02*
D03*
X209154D02*
D03*
X220154Y127400D02*
D03*
X218154D02*
D03*
X220154Y124900D02*
D03*
X218154D02*
D03*
D19*
X203654Y123300D02*
D03*
X222754Y111500D02*
D03*
X203654D02*
D03*
X222754Y126600D02*
D03*
D20*
X222865Y121016D02*
D03*
Y117066D02*
D03*
X203454Y114716D02*
D03*
X219515Y110516D02*
D03*
X218004Y113866D02*
D03*
X216340Y110516D02*
D03*
X214808Y113866D02*
D03*
X213165Y110516D02*
D03*
X211612Y113866D02*
D03*
X209990Y110516D02*
D03*
X208415Y113866D02*
D03*
X206815Y110516D02*
D03*
D21*
X222865Y122984D02*
D03*
Y119034D02*
D03*
X203454Y116684D02*
D03*
X219515Y112484D02*
D03*
X218004Y115834D02*
D03*
X216340Y112484D02*
D03*
X214808Y115834D02*
D03*
X213165Y112484D02*
D03*
X211612Y115834D02*
D03*
X209990Y112484D02*
D03*
X208415Y115834D02*
D03*
X206815Y112484D02*
D03*
D22*
X206654Y117010D02*
D03*
X208654D02*
D03*
X210654D02*
D03*
X212654D02*
D03*
X207654D02*
D03*
X209654D02*
D03*
X211654D02*
D03*
X213654D02*
D03*
X219654D02*
D03*
X217654D02*
D03*
X215654D02*
D03*
X218654D02*
D03*
X216654D02*
D03*
X214654D02*
D03*
X219654Y123010D02*
D03*
X214654D02*
D03*
X216654D02*
D03*
X218654D02*
D03*
X215654D02*
D03*
X217654D02*
D03*
X213654D02*
D03*
X211654D02*
D03*
X209654D02*
D03*
X207654D02*
D03*
X212654D02*
D03*
X210654D02*
D03*
X208654D02*
D03*
X206654D02*
D03*
M02*
